<svg id="visual" viewBox="0 0 900 600" width="900" height="600" xmlns="http://www.w3.org/2000/svg" xmlns:xlink="http://www.w3.org/1999/xlink" version="1.1"><path d="M0 515L12.5 517C25 519 50 523 75 522C100 521 125 515 150 512.7C175 510.3 200 511.7 225 515.3C250 519 275 525 300 526.5C325 528 350 525 375 524.8C400 524.7 425 527.3 450 526.5C475 525.7 500 521.3 525 518.2C550 515 575 513 600 513.5C625 514 650 517 675 517.8C700 518.7 725 517.3 750 519.2C775 521 800 526 825 525.7C850 525.3 875 519.7 887.5 516.8L900 514L900 601L887.5 601C875 601 850 601 825 601C800 601 775 601 750 601C725 601 700 601 675 601C650 601 625 601 600 601C575 601 550 601 525 601C500 601 475 601 450 601C425 601 400 601 375 601C350 601 325 601 300 601C275 601 250 601 225 601C200 601 175 601 150 601C125 601 100 601 75 601C50 601 25 601 12.5 601L0 601Z" fill="#f0ab56"></path><path d="M0 536L12.5 535C25 534 50 532 75 534.2C100 536.3 125 542.7 150 543.2C175 543.7 200 538.3 225 535.7C250 533 275 533 300 533.2C325 533.3 350 533.7 375 533.2C400 532.7 425 531.3 450 534C475 536.7 500 543.3 525 546.3C550 549.3 575 548.7 600 546.5C625 544.3 650 540.7 675 539.5C700 538.3 725 539.7 750 539.2C775 538.7 800 536.3 825 535.8C850 535.3 875 536.7 887.5 537.3L900 538L900 601L887.5 601C875 601 850 601 825 601C800 601 775 601 750 601C725 601 700 601 675 601C650 601 625 601 600 601C575 601 550 601 525 601C500 601 475 601 450 601C425 601 400 601 375 601C350 601 325 601 300 601C275 601 250 601 225 601C200 601 175 601 150 601C125 601 100 601 75 601C50 601 25 601 12.5 601L0 601Z" fill="#efc682"></path><path d="M0 554L12.5 555.8C25 557.7 50 561.3 75 561.2C100 561 125 557 150 555.8C175 554.7 200 556.3 225 556.3C250 556.3 275 554.7 300 553.8C325 553 350 553 375 554.8C400 556.7 425 560.3 450 562.2C475 564 500 564 525 562.2C550 560.3 575 556.7 600 554.8C625 553 650 553 675 553.2C700 553.3 725 553.7 750 555.8C775 558 800 562 825 562.2C850 562.3 875 558.7 887.5 556.8L900 555L900 601L887.5 601C875 601 850 601 825 601C800 601 775 601 750 601C725 601 700 601 675 601C650 601 625 601 600 601C575 601 550 601 525 601C500 601 475 601 450 601C425 601 400 601 375 601C350 601 325 601 300 601C275 601 250 601 225 601C200 601 175 601 150 601C125 601 100 601 75 601C50 601 25 601 12.5 601L0 601Z" fill="#f0deb1"></path><path d="M0 576L12.5 574.8C25 573.7 50 571.3 75 571.8C100 572.3 125 575.7 150 576.8C175 578 200 577 225 575.3C250 573.7 275 571.3 300 570.7C325 570 350 571 375 572.7C400 574.3 425 576.7 450 577C475 577.3 500 575.7 525 574.8C550 574 575 574 600 573.8C625 573.7 650 573.3 675 574.3C700 575.3 725 577.7 750 578.5C775 579.3 800 578.7 825 577.3C850 576 875 574 887.5 573L900 572L900 601L887.5 601C875 601 850 601 825 601C800 601 775 601 750 601C725 601 700 601 675 601C650 601 625 601 600 601C575 601 550 601 525 601C500 601 475 601 450 601C425 601 400 601 375 601C350 601 325 601 300 601C275 601 250 601 225 601C200 601 175 601 150 601C125 601 100 601 75 601C50 601 25 601 12.5 601L0 601Z" fill="#f7f3e3"></path></svg>